<svg width="24" height="24" viewBox="0 0 24 24" fill="none" xmlns="http://www.w3.org/2000/svg">
<rect width="24" height="24" fill="#4F5E86"/>
<path d="M20.2356 17.9991H18.1562C17.3694 17.9991 17.1324 17.3781 15.7221 16.0028C14.4895 14.8452 13.969 14.7013 13.6572 14.7013C13.226 14.7013 13.1084 14.8167 13.1084 15.3951V17.2182C13.1084 17.7113 12.9443 18 11.6224 18C10.34 17.916 9.09638 17.5364 7.99403 16.8923C6.89168 16.2482 5.96212 15.358 5.28192 14.2952C3.66684 12.3363 2.54307 10.0371 2 7.58046C2 7.27662 2.11851 7.00121 2.71291 7.00121H4.79145C5.32568 7.00121 5.51803 7.23309 5.72771 7.76881C6.7369 10.6633 8.459 13.1811 9.15823 13.1811C9.42625 13.1811 9.54294 13.0656 9.54294 12.4144V9.43285C9.45451 8.07266 8.71334 7.95805 8.71334 7.46586C8.72272 7.336 8.78367 7.21483 8.88325 7.12807C8.98283 7.04131 9.1132 6.9958 9.24666 7.00121H12.514C12.9607 7.00121 13.1084 7.21798 13.1084 7.7386V11.7632C13.1084 12.1976 13.2998 12.3416 13.4347 12.3416C13.7028 12.3416 13.9088 12.1976 14.4002 11.7197C15.4534 10.4679 16.314 9.07318 16.9546 7.57957C17.0202 7.40025 17.1441 7.24675 17.3076 7.14248C17.471 7.03822 17.665 6.98891 17.8599 7.00209H19.9393C20.5629 7.00209 20.6951 7.30594 20.5629 7.73949C19.8066 9.39057 18.8707 10.9578 17.7714 12.4144C17.5472 12.7476 17.4578 12.9208 17.7714 13.3117C17.9775 13.6156 18.7068 14.2091 19.1963 14.7732C19.9092 15.4662 20.5009 16.2676 20.9485 17.1453C21.1272 17.7104 20.8291 17.9991 20.2356 17.9991Z" fill="white"/>
</svg>
