<svg width="24" height="24" viewBox="0 0 24 24" fill="none" xmlns="http://www.w3.org/2000/svg">
<rect width="24" height="24" fill="#4F5E86"/>
<path d="M13.8503 12.1855C13.8503 13.699 13.6111 15.0468 13.1328 16.2292C12.6545 17.4116 11.9728 18.3356 11.0877 19.0014C10.2025 19.6671 9.18822 20 8.04471 20C7.22555 20 6.44213 19.789 5.69444 19.367C4.94676 18.945 4.30353 18.3774 3.76476 17.6644C3.22598 16.9513 2.79716 16.1 2.4783 15.1105C2.15943 14.121 2 13.0841 2 12C2 10.9159 2.15943 9.87904 2.4783 8.8895C2.79716 7.89995 3.22598 7.04866 3.76476 6.33561C4.30353 5.62256 4.94676 5.05503 5.69444 4.63302C6.44213 4.211 7.22555 4 8.04471 4C9.61704 4 10.9667 4.6985 12.0938 6.0955L10.4527 8.18008C9.80946 7.35789 9.0068 6.94679 8.04471 6.94679C7.36849 6.94679 6.74313 7.17235 6.16862 7.62347C5.59411 8.07458 5.13918 8.68759 4.80382 9.46248C4.46846 10.2374 4.30078 11.0832 4.30078 12C4.30078 12.9168 4.46846 13.7626 4.80382 14.5375C5.13918 15.3124 5.59411 15.9254 6.16862 16.3765C6.74313 16.8276 7.36849 17.0532 8.04471 17.0532C8.50101 17.0532 8.92021 16.9695 9.3023 16.8022C9.68439 16.6348 9.99913 16.4256 10.2465 16.1746C10.4939 15.9236 10.7097 15.638 10.8939 15.3179C11.0781 14.9977 11.2127 14.6958 11.298 14.412C11.3832 14.1282 11.4423 13.859 11.4753 13.6044H8.04471V10.854H13.7513C13.8173 11.3124 13.8503 11.7563 13.8503 12.1855ZM21 10.854V13.146H19.2765V15.427H17.5447V13.146H15.8212V10.854H17.5447V8.57299H19.2765V10.854H21Z" fill="white"/>
</svg>
