<svg width="24" height="24" viewBox="0 0 24 24" fill="none" xmlns="http://www.w3.org/2000/svg">
<rect width="24" height="24" rx="2" fill="#4F5E86"/>
<path d="M19 7.52941C18.4479 7.79706 17.8528 7.97294 17.2361 8.05706C17.8671 7.65176 18.3547 7.00941 18.5841 6.23706C17.989 6.61941 17.3294 6.88706 16.6338 7.04C16.0674 6.38235 15.2715 6 14.3681 6C12.6831 6 11.3064 7.46824 11.3064 9.28059C11.3064 9.54059 11.3351 9.79294 11.3853 10.03C8.8327 9.89235 6.55975 8.58471 5.04685 6.60412C4.78155 7.08588 4.63098 7.65176 4.63098 8.24824C4.63098 9.38765 5.16874 10.3971 6.00048 10.9706C5.4914 10.9706 5.01816 10.8176 4.60229 10.5882V10.6112C4.60229 12.2018 5.66348 13.5324 7.06883 13.8306C6.61763 13.9623 6.14395 13.9806 5.68499 13.8841C5.87974 14.536 6.26114 15.1064 6.77559 15.5152C7.29003 15.9239 7.91165 16.1505 8.55306 16.1629C7.4658 17.0809 6.11807 17.5771 4.73136 17.57C4.48757 17.57 4.24379 17.5547 4 17.5241C5.36233 18.4571 6.98279 19 8.71797 19C14.3681 19 17.4728 13.9988 17.4728 9.66294C17.4728 9.51765 17.4728 9.38 17.4656 9.23471C18.0679 8.77588 18.5841 8.19471 19 7.52941Z" fill="white"/>
</svg>
