<svg xmlns="http://www.w3.org/2000/svg" viewBox="-0.7000000000000001 -0.7000000000000001 14 14" height="14" width="14" style="background-color: #ffffff"><path d="M9.5235 3.76425a0.2625 0.2625 0 0 0 -0.19425 -0.08925000000000001H7.3500000000000005V2.93475c0 -0.14700000000000002 0.0315 -0.315 0.26775000000000004 -0.315h1.5750000000000002a0.2205 0.2205 0 0 0 0.18375 -0.07875 0.24675 0.24675 0 0 0 0.07350000000000001 -0.17850000000000002v-2.1a0.2625 0.2625 0 0 0 -0.2625 -0.2625h-2.27325C4.3942499999999995 0 4.2 2.1525 4.2 2.80875V3.6750000000000003H2.8875a0.2625 0.2625 0 0 0 -0.2625 0.2625v2.1a0.2625 0.2625 0 0 0 0.2625 0.2625H4.2v6.0375000000000005a0.2625 0.2625 0 0 0 0.2625 0.2625h2.625a0.2625 0.2625 0 0 0 0.2625 -0.2625V6.300000000000001h1.75875a0.2625 0.2625 0 0 0 0.2625 -0.23625000000000002l0.21525 -2.1a0.24675 0.24675 0 0 0 -0.063 -0.1995Z" fill="#000000" stroke-width="0.525"></path></svg>