<svg xmlns="http://www.w3.org/2000/svg" viewBox="-0.7000000000000001 -0.7000000000000001 14 14" height="14" width="14" style="background-color: #ffffff"><g><path d="M8.1165 5.64375h-3.6750000000000003a0.26775000000000004 0.26775000000000004 0 0 0 -0.2625 0.2625v1.05a0.2625 0.2625 0 0 0 0.2625 0.2625h2.2470000000000003a2.2365 2.2365 0 0 1 -2.3782500000000004 1.8375000000000001A2.75625 2.75625 0 1 1 6.1425 4.2a0.25725 0.25725 0 0 0 0.34650000000000003 0l0.777 -0.7140000000000001a0.26775000000000004 0.26775000000000004 0 0 0 0 -0.3885 4.33125 4.33125 0 1 0 -2.93475 7.53375C7.3500000000000005 10.63125 8.4 8.4 8.4 6.300000000000001a3.7485 3.7485 0 0 0 0 -0.42000000000000004 0.2625 0.2625 0 0 0 -0.28350000000000003 -0.23625000000000002Z" fill="#000000" stroke-width="0.525"></path><path d="M12.3375 5.64375H11.55v-0.7875000000000001a0.2625 0.2625 0 0 0 -0.2625 -0.2625h-1.05a0.2625 0.2625 0 0 0 -0.2625 0.2625v0.7875000000000001h-0.7875000000000001a0.2625 0.2625 0 0 0 -0.2625 0.2625v1.05a0.2625 0.2625 0 0 0 0.2625 0.2625H9.975v0.7875000000000001a0.2625 0.2625 0 0 0 0.2625 0.2625h1.05a0.2625 0.2625 0 0 0 0.2625 -0.2625v-0.7875000000000001h0.7875000000000001a0.2625 0.2625 0 0 0 0.2625 -0.2625v-1.05a0.2625 0.2625 0 0 0 -0.2625 -0.2625Z" fill="#000000" stroke-width="0.525"></path></g></svg>