<svg xmlns="http://www.w3.org/2000/svg" viewBox="-0.7000000000000001 -0.7000000000000001 14 14" height="14" width="14" style="background-color: #ffffff"><path d="M12.243 3.3810000000000002a0.2625 0.2625 0 0 0 -0.10500000000000001 -0.45675l-0.41475000000000006 -0.09975A0.25725 0.25725 0 0 1 11.55 2.6774999999999998a0.2625 0.2625 0 0 1 0 -0.22575l0.23625000000000002 -0.46725000000000005a0.2625 0.2625 0 0 0 -0.30974999999999997 -0.3675l-1.05 0.29400000000000004a0.252 0.252 0 0 1 -0.22575 -0.04725 2.625 2.625 0 0 0 -4.2 2.1v0.189a0.13125 0.13125 0 0 1 -0.1155 0.13125c-1.4752500000000002 0.17325000000000002 -2.8875 -0.5775000000000001 -4.41 -2.3310000000000004a0.2625 0.2625 0 0 0 -0.26775000000000004 -0.084A0.25725 0.25725 0 0 0 1.05 2.1a3.948 3.948 0 0 0 0.24150000000000002 2.583 0.14175000000000001 0.14175000000000001 0 0 1 0 0.1365 0.126 0.126 0 0 1 -0.13125 0.052500000000000005l-0.5932499999999999 -0.1155a0.273 0.273 0 0 0 -0.231 0.07875 0.26775000000000004 0.26775000000000004 0 0 0 -0.06825 0.231 2.7037500000000003 2.7037500000000003 0 0 0 1.24425 1.9845 0.13125 0.13125 0 0 1 0.063 0.12075000000000001 0.126 0.126 0 0 1 -0.07875 0.1155l-0.28350000000000003 0.11025a0.27825000000000005 0.27825000000000005 0 0 0 -0.14700000000000002 0.15225 0.26775000000000004 0.26775000000000004 0 0 0 0 0.21000000000000002 2.289 2.289 0 0 0 1.6800000000000002 1.302 0.14175000000000001 0.14175000000000001 0 0 1 0.09975 0.1155 0.1365 0.1365 0 0 1 -0.07875 0.1365 5.775 5.775 0 0 1 -2.2417499999999997 0.4305 0.25725 0.25725 0 0 0 -0.10500000000000001 0.525 10.458000000000002 10.458000000000002 0 0 0 4.2735 1.01325 6.615 6.615 0 0 0 3.6750000000000003 -1.05A6.5520000000000005 6.5520000000000005 0 0 0 11.2875 4.756500000000001v-0.45675a0.25725 0.25725 0 0 1 0.0945 -0.1995Z" fill="#000000" stroke-width="0.525"></path></svg>