<svg xmlns="http://www.w3.org/2000/svg" viewBox="-2.4000000000000004 -2.4000000000000004 48 48" height="48" width="48" style="background-color: #ffffff"><path d="M42.678000000000004 30.366000000000003a23.778000000000002 23.778000000000002 0 0 0 -4.338 -5.004c-2.3400000000000003 -2.16 -2.3400000000000003 -2.16 0 -5.112 0.41400000000000003 -0.54 0.9 -1.1520000000000001 1.4220000000000002 -1.8 3.6 -4.734 3.69 -6.282000000000001 3.384 -7.2 -0.522 -1.4400000000000002 -2.7 -1.26 -3.042 -1.2060000000000002l-6.084 0a2.286 2.286 0 0 0 -1.4040000000000001 0.27 2.52 2.52 0 0 0 -0.918 1.116c-1.116 2.9699999999999998 -4.176 8.478 -5.4 9A9.612 9.612 0 0 1 26.028000000000002 16.2c0.18000000000000002 -2.9699999999999998 0.41400000000000003 -6.318 -2.106 -6.930000000000001A11.645999999999999 11.645999999999999 0 0 0 20.826 9a13.518 13.518 0 0 0 -5.58 0.6120000000000001c-0.7020000000000001 0.36000000000000004 -1.6560000000000001 1.2240000000000002 -1.512 2.034a1.116 1.116 0 0 0 0.864 0.846 1.9440000000000002 1.9440000000000002 0 0 1 1.242 0.558 15.048 15.048 0 0 1 0 7.488c-1.1880000000000002 -0.36000000000000004 -4.122 -5.598 -5.4 -8.856a2.8080000000000003 2.8080000000000003 0 0 0 -0.8280000000000001 -1.08 3.15 3.15 0 0 0 -1.494 -0.558l-5.922000000000001 0a2.646 2.646 0 0 0 -1.8 0.7200000000000001A2.124 2.124 0 0 0 0.18000000000000002 12.708c0.198 0.432 4.77 10.692 10.062 16.2a13.770000000000001 13.770000000000001 0 0 0 10.908 4.59 20.88 20.88 0 0 0 4.266 -0.41400000000000003 3.8160000000000003 3.8160000000000003 0 0 0 0.7200000000000001 -2.484c0 -1.296 0.162 -1.8 0.7200000000000001 -1.9080000000000001s1.6560000000000001 1.3860000000000001 2.196 2.034a14.868 14.868 0 0 0 2.574 2.538 5.4 5.4 0 0 0 2.9699999999999998 1.044l5.867999999999999 0a3.2760000000000002 3.2760000000000002 0 0 0 2.52 -1.35 2.4480000000000004 2.4480000000000004 0 0 0 -0.30600000000000005 -2.592Z" fill="#000000" stroke-width="1.8"></path></svg>