<svg width="50" height="53" viewBox="0 0 50 53" fill="none" xmlns="http://www.w3.org/2000/svg">
<g filter="url(#filter0_d_9_12)">
<path d="M44.968 20C44.894 17.378 44.646 15.706 43.806 14.28C42.61 12.25 40.458 11.12 36.156 8.864L32.156 6.764C28.644 4.922 26.888 4 25 4C23.112 4 21.356 4.92 17.844 6.764L13.844 8.864C9.542 11.12 7.39 12.25 6.194 14.28C5 16.308 5 18.834 5 23.88V24.114C5 29.164 5 31.69 6.194 33.718C7.39 35.748 9.542 36.878 13.844 39.136L17.844 41.234C21.356 43.078 23.112 44 25 44C26.888 44 28.644 43.08 32.156 41.236L36.156 39.136C40.458 36.878 42.61 35.75 43.806 33.72C44.646 32.294 44.894 30.622 44.968 28M43 15L35 19M35 19L34 19.5L25 24M35 19V26M35 19L16 9M25 24L7 15M25 24V43" stroke="black" stroke-width="1.5" stroke-linecap="round"/>
</g>
<defs>
<filter id="filter0_d_9_12" x="-3" y="0" width="56" height="56" filterUnits="userSpaceOnUse" color-interpolation-filters="sRGB">
<feFlood flood-opacity="0" result="BackgroundImageFix"/>
<feColorMatrix in="SourceAlpha" type="matrix" values="0 0 0 0 0 0 0 0 0 0 0 0 0 0 0 0 0 0 127 0" result="hardAlpha"/>
<feOffset dy="4"/>
<feGaussianBlur stdDeviation="2"/>
<feComposite in2="hardAlpha" operator="out"/>
<feColorMatrix type="matrix" values="0 0 0 0 0 0 0 0 0 0 0 0 0 0 0 0 0 0 0.25 0"/>
<feBlend mode="normal" in2="BackgroundImageFix" result="effect1_dropShadow_9_12"/>
<feBlend mode="normal" in="SourceGraphic" in2="effect1_dropShadow_9_12" result="shape"/>
</filter>
</defs>
</svg>
