<svg width="56" height="50" viewBox="0 0 56 50" fill="none" xmlns="http://www.w3.org/2000/svg">
<g clip-path="url(#clip0_9_2)" filter="url(#filter0_d_9_2)">
<path d="M51.6933 10.88C51.5912 10.2311 51.2942 9.62858 50.8418 9.15234C50.3893 8.67609 49.8028 8.34861 49.16 8.21333L41.3333 6.49333C40.494 6.31028 39.6252 6.3096 38.7856 6.49132C37.946 6.67304 37.1552 7.03294 36.4667 7.54667L13.3333 24.4L6.85333 24.1333C6.33242 24.1147 5.81887 24.2606 5.38564 24.5505C4.9524 24.8403 4.6215 25.2593 4.43993 25.7479C4.25837 26.2365 4.23537 26.7699 4.37421 27.2723C4.51304 27.7747 4.80665 28.2206 5.21333 28.5467L11.88 33.7867C12.68 34.76 13.2133 34.5733 26.4533 27.36L27.6933 39.92C27.714 40.2626 27.8314 40.5924 28.032 40.8709C28.2327 41.1494 28.5082 41.3652 28.8267 41.4933C29.0558 41.5839 29.3003 41.6292 29.5467 41.6267C30.0426 41.6115 30.5162 41.4173 30.88 41.08L34.0667 38.1733C34.384 37.8793 34.5989 37.4916 34.68 37.0667L37.6 21.2C42.36 18.5333 46.8667 16.0267 50.08 14.2C50.6549 13.8766 51.1174 13.3855 51.4057 12.7922C51.694 12.1989 51.7943 11.5318 51.6933 10.88ZM48.76 11.88C45.4267 13.7733 40.76 16.4267 35.7467 19.1733L35.2 19.48L32.0933 36.3733L30.1333 38.16L28.6667 23.0933L26.8933 24C17.3333 29.3333 14.1467 30.88 13.0533 31.36L7.32 26.8133L14.0933 27.1067L38.0933 9.69333C38.4706 9.4113 38.9031 9.21207 39.3626 9.10868C39.8221 9.00529 40.2983 9.00006 40.76 9.09333L48.56 10.7733C48.6802 10.7951 48.7903 10.8547 48.8742 10.9435C48.9582 11.0322 49.0116 11.1454 49.0267 11.2667C49.0541 11.384 49.043 11.507 48.995 11.6175C48.9469 11.728 48.8645 11.8201 48.76 11.88Z" fill="black"/>
<path d="M13.3333 16.72L18.08 18.0533L20.2667 16.4667L14.9333 14.92L17.3333 13.4533L24.6267 13.24L27.6933 11.0133L17.3333 11.3333C17.0067 11.3157 16.6821 11.3945 16.4 11.56L12.8933 13.6C12.6034 13.7717 12.3708 14.0255 12.2249 14.3292C12.079 14.6329 12.0262 14.973 12.0732 15.3067C12.1203 15.6403 12.2651 15.9526 12.4893 16.2041C12.7136 16.4556 13.0072 16.6351 13.3333 16.72Z" fill="black"/>
</g>
<defs>
<filter id="filter0_d_9_2" x="0" y="0" width="56" height="56" filterUnits="userSpaceOnUse" color-interpolation-filters="sRGB">
<feFlood flood-opacity="0" result="BackgroundImageFix"/>
<feColorMatrix in="SourceAlpha" type="matrix" values="0 0 0 0 0 0 0 0 0 0 0 0 0 0 0 0 0 0 127 0" result="hardAlpha"/>
<feOffset dy="4"/>
<feGaussianBlur stdDeviation="2"/>
<feComposite in2="hardAlpha" operator="out"/>
<feColorMatrix type="matrix" values="0 0 0 0 0 0 0 0 0 0 0 0 0 0 0 0 0 0 0.25 0"/>
<feBlend mode="normal" in2="BackgroundImageFix" result="effect1_dropShadow_9_2"/>
<feBlend mode="normal" in="SourceGraphic" in2="effect1_dropShadow_9_2" result="shape"/>
</filter>
<clipPath id="clip0_9_2">
<rect width="48" height="48" fill="white" transform="translate(4)"/>
</clipPath>
</defs>
</svg>
