<svg width="54" height="51" viewBox="0 0 54 51" fill="none" xmlns="http://www.w3.org/2000/svg">
<g filter="url(#filter0_d_9_10)">
<path d="M49.3912 21.9375L46.7662 15.375C46.5436 14.8198 46.1593 14.3442 45.6632 14.0099C45.167 13.6756 44.582 13.4979 43.9837 13.5H37.5V12C37.5 11.6022 37.342 11.2206 37.0607 10.9393C36.7794 10.658 36.3978 10.5 36 10.5H7.5C6.70435 10.5 5.94129 10.8161 5.37868 11.3787C4.81607 11.9413 4.5 12.7044 4.5 13.5V34.5C4.5 35.2956 4.81607 36.0587 5.37868 36.6213C5.94129 37.1839 6.70435 37.5 7.5 37.5H10.6875C11.018 38.7906 11.7686 39.9346 12.821 40.7515C13.8734 41.5684 15.1677 42.0118 16.5 42.0118C17.8323 42.0118 19.1266 41.5684 20.179 40.7515C21.2314 39.9346 21.982 38.7906 22.3125 37.5H31.6875C32.0179 38.7906 32.7685 39.9346 33.821 40.7515C34.8734 41.5684 36.1677 42.0118 37.5 42.0118C38.8323 42.0118 40.1266 41.5684 41.179 40.7515C42.2314 39.9346 42.982 38.7906 43.3125 37.5H46.5C47.2956 37.5 48.0587 37.1839 48.6213 36.6213C49.1839 36.0587 49.5 35.2956 49.5 34.5V22.5C49.5005 22.3072 49.4636 22.1162 49.3912 21.9375ZM37.5 16.5H43.9837L45.7837 21H37.5V16.5ZM7.5 13.5H34.5V25.5H7.5V13.5ZM16.5 39C15.9067 39 15.3266 38.8241 14.8333 38.4944C14.3399 38.1648 13.9554 37.6962 13.7284 37.1481C13.5013 36.5999 13.4419 35.9967 13.5576 35.4147C13.6734 34.8328 13.9591 34.2982 14.3787 33.8787C14.7982 33.4591 15.3328 33.1734 15.9147 33.0576C16.4967 32.9419 17.0999 33.0013 17.648 33.2284C18.1962 33.4554 18.6648 33.8399 18.9944 34.3333C19.3241 34.8266 19.5 35.4067 19.5 36C19.5 36.7956 19.1839 37.5587 18.6213 38.1213C18.0587 38.6839 17.2956 39 16.5 39ZM31.6875 34.5H22.3125C21.982 33.2094 21.2314 32.0654 20.179 31.2485C19.1266 30.4316 17.8323 29.9882 16.5 29.9882C15.1677 29.9882 13.8734 30.4316 12.821 31.2485C11.7686 32.0654 11.018 33.2094 10.6875 34.5H7.5V28.5H34.5V30.8081C33.8103 31.2068 33.2065 31.7384 32.7237 32.3722C32.2409 33.0059 31.8887 33.7291 31.6875 34.5ZM37.5 39C36.9067 39 36.3266 38.8241 35.8333 38.4944C35.3399 38.1648 34.9554 37.6962 34.7284 37.1481C34.5013 36.5999 34.4419 35.9967 34.5576 35.4147C34.6734 34.8328 34.9591 34.2982 35.3787 33.8787C35.7982 33.4591 36.3328 33.1734 36.9147 33.0576C37.4967 32.9419 38.0999 33.0013 38.648 33.2284C39.1962 33.4554 39.6648 33.8399 39.9944 34.3333C40.324 34.8266 40.5 35.4067 40.5 36C40.5 36.7956 40.1839 37.5587 39.6213 38.1213C39.0587 38.6839 38.2956 39 37.5 39ZM46.5 34.5H43.3125C42.9781 33.2125 42.2261 32.0723 41.1742 31.258C40.1224 30.4437 38.8302 30.0013 37.5 30V24H46.5V34.5Z" fill="black"/>
</g>
<defs>
<filter id="filter0_d_9_10" x="-1" y="0" width="56" height="56" filterUnits="userSpaceOnUse" color-interpolation-filters="sRGB">
<feFlood flood-opacity="0" result="BackgroundImageFix"/>
<feColorMatrix in="SourceAlpha" type="matrix" values="0 0 0 0 0 0 0 0 0 0 0 0 0 0 0 0 0 0 127 0" result="hardAlpha"/>
<feOffset dy="4"/>
<feGaussianBlur stdDeviation="2"/>
<feComposite in2="hardAlpha" operator="out"/>
<feColorMatrix type="matrix" values="0 0 0 0 0 0 0 0 0 0 0 0 0 0 0 0 0 0 0.25 0"/>
<feBlend mode="normal" in2="BackgroundImageFix" result="effect1_dropShadow_9_10"/>
<feBlend mode="normal" in="SourceGraphic" in2="effect1_dropShadow_9_10" result="shape"/>
</filter>
</defs>
</svg>
